<svg xmlns="http://www.w3.org/2000/svg" viewBox="0 0 50 50">
  <path d="M14 4C8.4886661 4 4 8.4886661 4 14L4 36C4 41.511334 8.4886661 46 14 46L36 46C41.511334 46 46 41.511334 46 36L46 14C46 8.4886661 41.511334 4 36 4L14 4 z M 18 10L32 10C34.209 10 36 11.791 36 14L36 36C36 38.209 34.209 40 32 40L18 40C15.791 40 14 38.209 14 36L14 14C14 11.791 15.791 10 18 10 z M 18 13C17.448 13 17 13.448 17 14L17 18C17 18.552 17.448 19 18 19L32 19C32.552 19 33 18.552 33 18L33 14C33 13.448 32.552 13 32 13L18 13 z M 19 21 A 2 2 0 0 0 19 25 A 2 2 0 0 0 19 21 z M 25 21 A 2 2 0 0 0 25 25 A 2 2 0 0 0 25 21 z M 31 21 A 2 2 0 0 0 31 25 A 2 2 0 0 0 31 21 z M 19 27 A 2 2 0 0 0 19 31 A 2 2 0 0 0 19 27 z M 25 27 A 2 2 0 0 0 25 31 A 2 2 0 0 0 25 27 z M 31 27 A 2 2 0 0 0 31 31 A 2 2 0 0 0 31 27 z M 19 33C17.895 33 17 33.895 17 35C17 36.105 17.895 37 19 37L25 37C26.105 37 27 36.105 27 35C27 33.895 26.105 33 25 33L19 33 z M 31 33 A 2 2 0 0 0 31 37 A 2 2 0 0 0 31 33 z" fill="#FFFFFF" />
</svg>